<svg id="icons" enable-background="new 0 0 64 64" height="512" viewBox="0 0 64 64" width="512" xmlns="http://www.w3.org/2000/svg"><g><g><path d="m15.505 51h7v3h-7z" fill="#e6e9ed"/></g><g><path d="m15.505 54h7v6.03c0-1.94-1.57-3.5-3.5-3.5-1.939 0-3.5 1.56-3.5 3.5z" fill="#545c66"/></g><g><path d="m33.505 60h7v3h-7z" fill="#656d78"/></g><g><path d="m15.505 44.03h7v6.97h-7z" fill="#4a89dc"/></g><g><path d="m22.505 44.03h7v6.97h-7z" fill="#4a89dc"/></g><g><path d="m22.505 51h7v3h-7z" fill="#e6e9ed"/></g><g><path d="m22.505 60.03v1h-3.5-3.5v-1c0-1.94 1.561-3.5 3.5-3.5 1.93 0 3.5 1.56 3.5 3.5z" fill="#656d78"/></g><g><path d="m52.495 60c.55 0 1 .45 1 1 0 1.1-.9 2-2 2h-5c-.94 0-1.72-.64-1.94-1.5l-.24-1.5h.01z" fill="#656d78"/></g><g><path d="m22.505 54h7v6.03c0-1.94-1.57-3.5-3.5-3.5-1.939 0-3.5 1.56-3.5 3.5z" fill="#545c66"/></g><g><path d="m29.505 60.03v1h-3.5-3.5v-1c0-1.94 1.561-3.5 3.5-3.5 1.93 0 3.5 1.56 3.5 3.5z" fill="#656d78"/></g><g><path d="m31.505 5v5.04h-1-16.01-.99v-5.04h1 16z" fill="#656d78"/></g><g><path d="m28.505 1 2 4h-16l2-4z" fill="#545c66"/></g><g><path d="m29.505 30h5v3h-5z" fill="#e6e9ed"/></g><g><path d="m10.505 33h5v6h-5z" fill="#5d9cec"/></g><g><path d="m29.505 39h5v2.53c0 1.38-1.12 2.5-2.5 2.5-1.39 0-2.5-1.12-2.5-2.5v-.53z" fill="#656d78"/></g><g><path d="m16.225 17h12.551c-.631.79-1.4 1.46-2.28 1.96-1.17.69-2.54 1.08-3.99 1.08-1.46 0-2.83-.39-4.01-1.08-.871-.5-1.642-1.17-2.271-1.96z" fill="#eac6bb"/></g><g><path d="m30.505 12.03v4.97h-1.73-12.55-1.73v-4.97-1.99h16.01z" fill="#5d9cec"/></g><g><path d="m10.505 30h5v3h-5z" fill="#e6e9ed"/></g><g><path d="m15.505 30h-5v-4.96c0-2.21 1.78-4 4-4h3.99c0 2.21 1.79 4 4 4s4.01-1.79 4.01-4h4c2.21 0 4 1.79 4 4v4.96h-5v3 6 2h-14v-2-6z" fill="#5d9cec"/></g><g><path d="m15.505 41.53c0 1.38-1.12 2.5-2.5 2.5-1.39 0-2.5-1.12-2.5-2.5v-2.53h5v2z" fill="#656d78"/></g><g><path d="m26.505 18.97v2.07c0 2.21-1.8 4-4.01 4s-4-1.79-4-4v-2.08c1.18.69 2.55 1.08 4.01 1.08 1.45 0 2.82-.39 3.99-1.08z" fill="#d3b1a9"/></g><g><path d="m29.505 33h5v6h-5z" fill="#5d9cec"/></g><g><path d="m29.505 41.53v2.5h-7-7v-2.5-.53h14z" fill="#e6e9ed"/></g></g><g><g><path d="m10.505 26.041c-.553 0-1-.447-1-1 0-2.758 2.244-5.002 5.002-5.002.553 0 1 .447 1 1s-.447 1-1 1c-1.655 0-3.002 1.347-3.002 3.002 0 .553-.447 1-1 1z"/></g><g><path d="m34.505 26.037c-.553 0-1-.447-1-1 0-1.654-1.346-3-3-3-.553 0-1-.447-1-1s.447-1 1-1c2.757 0 5 2.243 5 5 0 .553-.447 1-1 1z"/></g><g><path d="m26.505 22.035c-.553 0-1-.447-1-1v-2.068c0-.553.447-1 1-1s1 .447 1 1v2.068c0 .553-.447 1-1 1z"/></g><g><path d="m18.497 22.035c-.553 0-1-.447-1-1v-2.072c0-.553.447-1 1-1s1 .447 1 1v2.072c0 .553-.447 1-1 1z"/></g><g><path d="m18.497 22.039h-3.99c-.553 0-1-.447-1-1s.447-1 1-1h3.99c.553 0 1 .447 1 1s-.447 1-1 1z"/></g><g><path d="m30.505 22.035h-4c-.553 0-1-.447-1-1s.447-1 1-1h4c.553 0 1 .447 1 1s-.447 1-1 1z"/></g><g><path d="m22.501 26.039c-2.759 0-5.004-2.245-5.004-5.004 0-.553.447-1 1-1s1 .447 1 1c0 1.656 1.348 3.004 3.004 3.004s3.004-1.348 3.004-3.004c0-.553.447-1 1-1s1 .447 1 1c0 2.759-2.245 5.004-5.004 5.004z"/></g><g><path d="m10.505 42.525c-.553 0-1-.447-1-1v-16.484c0-.553.447-1 1-1s1 .447 1 1v16.484c0 .553-.447 1-1 1z"/></g><g><path d="m34.505 42.525c-.553 0-1-.447-1-1v-16.488c0-.553.447-1 1-1s1 .447 1 1v16.488c0 .553-.447 1-1 1z"/></g><g><g><path d="m15.505 61.027c-.553 0-1-.447-1-1v-31.98c0-.553.447-1 1-1s1 .447 1 1v31.98c0 .553-.447 1-1 1z"/></g><g><path d="m29.507 61.027c-.553 0-1-.447-1-1v-31.984c0-.553.447-1 1-1s1 .447 1 1v31.984c0 .553-.447 1-1 1z"/></g></g><g><path d="m22.505 62.027c-.553 0-1-.447-1-1v-16.998c0-.553.447-1 1-1s1 .447 1 1v16.998c0 .553-.447 1-1 1z"/></g><g><path d="m13.005 45.025c-1.93 0-3.5-1.57-3.5-3.5 0-.553.447-1 1-1s1 .447 1 1c0 .827.673 1.5 1.5 1.5s1.5-.673 1.5-1.5c0-.553.447-1 1-1s1 .447 1 1c0 1.93-1.57 3.5-3.5 3.5z"/></g><g><path d="m32.005 45.025c-1.93 0-3.5-1.57-3.5-3.5 0-.553.447-1 1-1s1 .447 1 1c0 .827.673 1.5 1.5 1.5s1.5-.673 1.5-1.5c0-.553.447-1 1-1s1 .447 1 1c0 1.93-1.57 3.5-3.5 3.5z"/></g><g><path d="m22.505 61.027c-.553 0-1-.447-1-1 0-1.379-1.121-2.5-2.5-2.5s-2.5 1.121-2.5 2.5c0 .553-.447 1-1 1s-1-.447-1-1c0-2.481 2.019-4.5 4.5-4.5s4.5 2.019 4.5 4.5c0 .553-.447 1-1 1z"/></g><g><path d="m15.505 62.027c-.553 0-1-.447-1-1v-1c0-.553.447-1 1-1s1 .447 1 1v1c0 .553-.447 1-1 1z"/></g><g><path d="m22.505 62.027h-7c-.553 0-1-.447-1-1s.447-1 1-1h7c.553 0 1 .447 1 1s-.447 1-1 1z"/></g><g><path d="m29.507 61.027c-.553 0-1-.447-1-1 0-1.379-1.121-2.5-2.5-2.5-1.38 0-2.502 1.121-2.502 2.5 0 .553-.447 1-1 1s-1-.447-1-1c0-2.481 2.02-4.5 4.502-4.5 2.481 0 4.5 2.019 4.5 4.5 0 .553-.447 1-1 1z"/></g><g><path d="m29.507 62.027h-7.002c-.553 0-1-.447-1-1s.447-1 1-1h7.002c.553 0 1 .447 1 1s-.447 1-1 1z"/></g><g><path d="m29.507 62.027c-.553 0-1-.447-1-1v-1c0-.553.447-1 1-1s1 .447 1 1v1c0 .553-.447 1-1 1z"/></g><g><path d="m22.505 21.035c-2.766 0-5.339-1.244-7.059-3.414-.344-.433-.271-1.062.162-1.404.432-.346 1.062-.271 1.404.162 1.339 1.688 3.341 2.656 5.492 2.656s4.153-.968 5.492-2.656c.343-.433.972-.507 1.404-.162.433.343.506.972.162 1.404-1.718 2.17-4.291 3.414-7.057 3.414z"/></g><g><path d="m30.509 13.031c-.553 0-1-.447-1-1v-1.992c0-.553.447-1 1-1s1 .447 1 1v1.992c0 .553-.447 1-1 1z"/></g><g><path d="m14.501 13.031c-.553 0-1-.447-1-1v-1.992c0-.553.447-1 1-1s1 .447 1 1v1.992c0 .553-.447 1-1 1z"/></g><g><path d="m29.507 45.029h-14.002c-.553 0-1-.447-1-1s.447-1 1-1h14.002c.553 0 1 .447 1 1s-.447 1-1 1z"/></g><g><path d="m29.507 41.998h-14.002c-.553 0-1-.447-1-1s.447-1 1-1h14.002c.553 0 1 .447 1 1s-.447 1-1 1z"/></g><g><path d="m22.501 36.031c-.553 0-1-.447-1-1v-4c0-.553.447-1 1-1s1 .447 1 1v4c0 .553-.447 1-1 1z"/></g><g><path d="m29.507 51.998h-14.002c-.553 0-1-.447-1-1s.447-1 1-1h14.002c.553 0 1 .447 1 1s-.447 1-1 1z"/></g><g><path d="m19.005 64c-.553 0-1-.447-1-1v-1.973c0-.553.447-1 1-1s1 .447 1 1v1.973c0 .553-.447 1-1 1z"/></g><g><path d="m26.006 64c-.553 0-1-.447-1-1v-1.973c0-.553.447-1 1-1s1 .447 1 1v1.973c0 .553-.447 1-1 1z"/></g><g><path d="m31.505 11.039h-18c-.553 0-1-.447-1-1v-5.037c0-.553.447-1 1-1h18c.553 0 1 .447 1 1v5.037c0 .553-.447 1-1 1zm-17-2h16v-3.037h-16z"/></g><g><path d="m14.501 18c-.553 0-1-.447-1-1v-4.969c0-.553.447-1 1-1s1 .447 1 1v4.969c0 .553-.447 1-1 1z"/></g><g><path d="m30.509 18h-16.008c-.553 0-1-.447-1-1s.447-1 1-1h16.008c.553 0 1 .447 1 1s-.447 1-1 1z"/></g><g><path d="m30.509 18c-.553 0-1-.447-1-1v-4.969c0-.553.447-1 1-1s1 .447 1 1v4.969c0 .553-.447 1-1 1z"/></g><g><path d="m14.504 6.002c-.15 0-.303-.034-.446-.105-.494-.247-.694-.848-.447-1.342l2-4.002c.246-.494.849-.693 1.342-.447.494.247.694.848.447 1.342l-2 4.002c-.175.35-.529.552-.896.552z"/></g><g><path d="m30.506 6.002c-.367 0-.721-.202-.896-.553l-2-4.002c-.247-.494-.047-1.095.447-1.342.494-.246 1.096-.047 1.342.447l2 4.002c.247.494.047 1.095-.447 1.342-.143.072-.296.106-.446.106z"/></g><g><path d="m28.505 2h-12c-.553 0-1-.447-1-1s.447-1 1-1h12c.553 0 1 .447 1 1s-.447 1-1 1z"/></g><g><path d="m15.505 40h-5c-.553 0-1-.447-1-1s.447-1 1-1h5c.553 0 1 .447 1 1s-.447 1-1 1z"/></g><g><path d="m15.505 31h-5c-.553 0-1-.447-1-1s.447-1 1-1h5c.553 0 1 .447 1 1s-.447 1-1 1z"/></g><g><path d="m15.505 34h-5c-.553 0-1-.447-1-1s.447-1 1-1h5c.553 0 1 .447 1 1s-.447 1-1 1z"/></g><g><path d="m34.505 31h-5c-.553 0-1-.447-1-1s.447-1 1-1h5c.553 0 1 .447 1 1s-.447 1-1 1z"/></g><g><path d="m34.505 34h-5c-.553 0-1-.447-1-1s.447-1 1-1h5c.553 0 1 .447 1 1s-.447 1-1 1z"/></g><g><path d="m34.505 40h-4.998c-.553 0-1-.447-1-1s.447-1 1-1h4.998c.553 0 1 .447 1 1s-.447 1-1 1z"/></g><g><path d="m29.507 55h-14.002c-.553 0-1-.447-1-1s.447-1 1-1h14.002c.553 0 1 .447 1 1s-.447 1-1 1z"/></g><g><g><path d="m44.559 62.5c-.481 0-.906-.349-.986-.84l-7.07-43.502c-.088-.545.282-1.059.827-1.147.55-.089 1.06.282 1.147.827l7.07 43.502c.088.545-.282 1.059-.827 1.147-.054.009-.109.013-.161.013z"/></g><g><path d="m46.496 63.998c-1.371 0-2.565-.925-2.905-2.25-.137-.535.186-1.08.721-1.217.533-.138 1.079.185 1.217.721.112.439.511.746.968.746.553 0 1 .447 1 1s-.448 1-1.001 1z"/></g><g><path d="m51.495 63.998c-.553 0-1-.447-1-1s.447-1 1-1c.552 0 1-.448 1-1 0-.553.447-1 1-1s1 .447 1 1c0 1.654-1.346 3-3 3z"/></g><g><path d="m53.495 61.998c-.553 0-1-.447-1-1v-.002c-.553 0-1-.446-1-.999 0-.552.447-.999 1-.999 1.103 0 2 .897 2 2 0 .553-.447 1-1 1z"/></g><g><path d="m52.495 60.998h-8.162c-.553 0-1-.447-1-1s.447-1 1-1h8.162c.553 0 1 .447 1 1s-.447 1-1 1z"/></g><g><path d="m51.495 63.998h-4.999c-.553 0-1-.447-1-1s.447-1 1-1h4.999c.553 0 1 .447 1 1s-.447 1-1 1z"/></g></g><g><path d="m40.506 63.998h-7c-.553 0-1-.447-1-1v-2.998c0-.553.447-1 1-1h7c.553 0 1 .447 1 1v2.998c0 .553-.447 1-1 1zm-6-2h5v-.998h-5z"/></g></g></svg>